<svg fill="none" height="103" viewBox="0 0 703 103" width="703" xmlns="http://www.w3.org/2000/svg"><path d="m702.5 103s-629.4004 0-661.4502 0-41.0498-20-41.0498-40h5.17676c-.00012.0426-.00098.0852-.00098.1279v1.0147c.00011 11.1549 3.80332 19.648 10.01462 25.2256 6.2114 5.7043 14.8315 8.6201 24.8457 8.6201 21.423-.0001 32.7051-10.902 33.3389-27.6348h-20.4092c-.8873 7.2254-5.0703 11.0282-11.5351 11.0283-8.6199 0-13.0567-5.8309-13.0567-17.4931v-.8887h51.6983c-.0002.0426-.002.0853-.002.1279v1.0147c.0001 10.6478 3.93 19.2674 10.5215 24.9717 6.4649 5.7043 15.5922 8.874 25.7332 8.874 10.141-.0001 19.268-3.1693 25.86-9.127 6.465-5.9579 10.394-14.5786 10.394-25.3535v-.5078h10.887v33.4668h22.691v-33.4668h18.634v33.4668h22.438v-33.4668h18.633v33.4668h22.692v-33.4668h14.001v33.4668h22.69v-33.4668h18.635v33.4668h22.436v-33.4668h18.635v33.4668h22.691v-33.4668h14.635v33.4668h22.691v-33.4668h18.094v12.1709c0 15.7184 8.239 22.8174 23.324 22.8174 5.451 0 9.634-1.014 12.55-1.9014v-17.2402c-2.029.8873-3.93 1.1406-6.465 1.1406-4.437 0-6.719-2.4082-6.719-6.9717v-10.0156h28.073v33.4668h22.564v-33.4668h23.902v33.4668h22.69v-33.4668h18.635v33.4668h22.437v-33.4668h18.635v33.4668h22.69v-33.4668h17.044v12.1709c0 15.7184 8.239 22.8173 23.324 22.8174 5.451 0 9.634-1.014 12.55-1.9014v-17.2402c-2.028.8873-3.93 1.1406-6.465 1.1406-4.437 0-6.719-2.4082-6.719-6.9717v-10.0156h17.388zm-572.991-39.2383c0 11.155-4.437 17.367-13.057 17.3672-8.747 0-13.183-6.0856-13.183-17.6211v-.5078h26.24zm-88.966-35.3672c8.1128 0 15.8458 1.7748 21.8037 5.958 5.9578 4.4368 10.0136 11.1559 10.6474 21.2969h-21.2959c-1.0141-6.2114-4.0567-9.6348-10.6484-9.6348-8.1126.0002-12.6757 5.7047-12.6758 16.8594v.126h-23.19724c.03029-10.9671 3.95367-19.5437 10.39354-25.4785 6.4649-5.9579 15.2119-9.1269 24.9727-9.127zm75.909 0c10.141.0001 19.268 3.1693 25.733 9.127 6.465 5.9579 10.394 14.4513 10.394 24.9726v.5059h-23.07v-.252c0-11.155-4.437-17.3669-13.057-17.3671-8.62 0-13.183 5.9581-13.183 17.1132v.5059h-23.1967c.0313-10.5892 3.9543-19.1644 10.5195-25.2246 6.4649-6.0847 15.5922-9.3809 25.8602-9.3809zm130.425 0c6.211.0001 11.662 2.0286 15.592 6.085 3.676 4.1831 6.085 10.3944 6.085 18.6338v9.8867h-22.692v-6.083c0-6.7185-3.296-10.0147-8.493-10.0147-6.084.0001-10.14 3.9299-10.14 11.1553v4.9424h-22.438v-6.083c0-6.7185-3.296-10.0147-8.493-10.0147-6.085.0001-10.141 3.9298-10.141 11.1553v4.9424h-22.691v-32.8301h22.691v10.1406c3.55-6.4648 10.522-11.916 20.789-11.916 8.747.0001 14.831 3.5496 18 11.0284 5.705-7.7326 13.438-11.0284 21.931-11.0284zm119.088 0c6.211 0 11.662 2.0287 15.592 6.085 3.676 4.1831 6.085 10.3943 6.085 18.6338v9.8867h-22.691v-6.083c0-6.7184-3.296-10.0146-8.493-10.0147-6.085 0-10.142 3.9298-10.142 11.1553v4.9424h-22.436v-6.083c0-6.7184-3.296-10.0145-8.493-10.0147-6.085 0-10.142 3.9298-10.142 11.1553v4.9424h-22.69v-32.8301h22.69v10.1406c3.549-6.4648 10.522-11.9158 20.789-11.916 8.747 0 14.832 3.5495 18.001 11.0284 5.704-7.7323 13.437-11.0283 21.93-11.0284zm59.003 34.6055h-22.691v-32.8301h22.691zm40.784-32.8301h13.057v15.4649h-13.057v17.3652h-22.69v-17.3652h-7.987v-15.4649h7.987v-13.8174h22.69zm54.06-30.1699c4.183 0 7.352.507199 10.394 1.39453v16.60547c-1.648-.507-3.676-.8877-6.211-.8877-5.451 0-7.606 2.7891-7.606 7.2256v5.832h13.437v15.4649h-13.437v17.3652h-22.564v-17.3652h-8.366v-15.4649h8.366v-5.832c0-16.35219 10.268-24.33785865 25.987-24.3379zm103.889 28.3945c6.212 0 11.662 2.0286 15.592 6.085 3.676 4.1831 6.085 10.3943 6.085 18.6338v9.8867h-22.69v-6.083c0-6.7184-3.296-10.0146-8.494-10.0147-6.084 0-10.141 3.9298-10.141 11.1553v4.9424h-22.437v-6.083c0-6.7183-3.296-10.0145-8.493-10.0147-6.085 0-10.142 3.9298-10.142 11.1553v4.9424h-22.69v-32.8301h22.69v10.1406c3.55-6.4648 10.522-11.9159 20.79-11.916 8.746 0 14.831 3.5494 18 11.0284 5.705-7.7323 13.437-11.0283 21.93-11.0284zm61.411 1.7754h13.057v15.4649h-13.057v17.3652h-22.69v-17.3652h-7.986v-15.4649h7.986v-13.8174h22.69zm-271.553-29.790017c7.098 0 12.549 5.070617 12.549 11.789017 0 6.7185-5.451 11.6622-12.549 11.6622-7.099-.0002-12.423-4.9438-12.423-11.6622 0-6.71829 5.324-11.788843 12.423-11.789017z" fill="#e43717"/></svg>